<svg xmlns="http://www.w3.org/2000/svg" width="64" height="64" fill="none" viewBox="0 0 64 64">
  <path
    fill="#2F5D50"
    d="M42 11.5a2 2 0 0 0-2 2v6.167l4.5 3.75V13.5a2 2 0 0 0-2.5-2Z"
  />
  <path
    stroke="#2F5D50"
    stroke-linecap="round"
    stroke-linejoin="round"
    stroke-width="6"
    d="M8 30.5 32 10l24 20.5"
  />
  <path
    fill="#C8874D"
    d="M19 27.5h26a3 3 0 0 1 3 3V49a5 5 0 0 1-5 5H21a5 5 0 0 1-5-5V30.5a3 3 0 0 1 3-3Z"
  />
  <path
    fill="#F6ECD8"
    d="M22 34.5a2.5 2.5 0 0 1 2.5-2.5h4a2.5 2.5 0 0 1 2.5 2.5v4a2.5 2.5 0 0 1-2.5 2.5h-4a2.5 2.5 0 0 1-2.5-2.5v-4Zm11 0a2.5 2.5 0 0 1 2.5-2.5h4a2.5 2.5 0 0 1 2.5 2.5v4a2.5 2.5 0 0 1-2.5 2.5h-4a2.5 2.5 0 0 1-2.5-2.5v-4Z"
  />
  <path
    fill="#5A3D2B"
    d="M28.5 39a3 3 0 0 1 3-3h1a3 3 0 0 1 3 3v15h-7V39Z"
  />
</svg>
